<?xml version="1.0" encoding="UTF-8" standalone="no"?>
<!DOCTYPE svg PUBLIC "-//W3C//DTD SVG 1.1//EN" "http://www.w3.org/Graphics/SVG/1.1/DTD/svg11.dtd">
<svg width="100%" height="100%" viewBox="0 0 1280 720" version="1.1" xmlns="http://www.w3.org/2000/svg" xmlns:xlink="http://www.w3.org/1999/xlink" xml:space="preserve" xmlns:serif="http://www.serif.com/" style="fill-rule:evenodd;clip-rule:evenodd;stroke-linecap:round;stroke-linejoin:round;stroke-miterlimit:1.5;">
    <g>
        <g transform="matrix(0.826667,-1.3529e-17,1.3529e-17,0.826667,99.1153,121.238)">
            <g transform="matrix(1,0,0,1,-3.04597,-16.0409)">
                <path d="M503.686,666.122L511.03,686.67L503.686,707.217L496.342,686.67L503.686,666.122Z" style="fill:rgb(217,139,45);stroke:black;stroke-opacity:0;stroke-width:2.52px;"/>
            </g>
            <path d="M507.984,670.629L500.64,691.176L500.64,650.081L507.984,670.629Z" style="fill:rgb(255,159,0);stroke:black;stroke-opacity:0;stroke-width:2.52px;"/>
            <g transform="matrix(1,0,0,0.648133,0,230.976)">
                <path d="M512.23,662.333L489.049,662.333C489.049,662.333 492.234,657.317 494.845,656.43C497.742,655.446 503.537,655.446 506.435,656.43C509.046,657.317 512.23,662.333 512.23,662.333Z" style="fill:rgb(105,38,0);stroke:black;stroke-opacity:0;stroke-width:2.99px;"/>
            </g>
            <g transform="matrix(1,0,0,1,2.14887,10.4698)">
                <path d="M500.64,632.741C500.212,631.374 496.77,631.374 496.342,632.741C495.626,635.031 496.342,646.481 496.342,646.481L500.64,646.481C500.64,646.481 501.356,635.031 500.64,632.741Z" style="fill:rgb(105,38,0);stroke:black;stroke-opacity:0;stroke-width:2.52px;"/>
            </g>
        </g>
        <g transform="matrix(0.826667,-1.3529e-17,1.3529e-17,0.826667,135.089,121.238)">
            <g transform="matrix(1,0,0,1,-3.04597,-16.0409)">
                <path d="M503.686,666.122L511.03,686.67L503.686,707.217L496.342,686.67L503.686,666.122Z" style="fill:rgb(98,93,93);stroke:black;stroke-opacity:0;stroke-width:2.52px;"/>
            </g>
            <path d="M507.984,670.629L500.64,691.176L500.64,650.081L507.984,670.629Z" style="fill:rgb(113,113,113);stroke:black;stroke-opacity:0;stroke-width:2.52px;"/>
            <g transform="matrix(1,0,0,0.648133,0,230.976)">
                <path d="M512.23,662.333L489.049,662.333C489.049,662.333 492.234,657.317 494.845,656.43C497.742,655.446 503.537,655.446 506.435,656.43C509.046,657.317 512.23,662.333 512.23,662.333Z" style="fill:rgb(130,48,0);stroke:black;stroke-opacity:0;stroke-width:2.99px;"/>
            </g>
            <g transform="matrix(1,0,0,1,2.14887,10.4698)">
                <path d="M500.64,632.741C500.212,631.374 496.77,631.374 496.342,632.741C495.626,635.031 496.342,646.481 496.342,646.481L500.64,646.481C500.64,646.481 501.356,635.031 500.64,632.741Z" style="fill:rgb(130,48,0);stroke:black;stroke-opacity:0;stroke-width:2.52px;"/>
            </g>
        </g>
        <g transform="matrix(1.41799,0,0,1.41799,-225.449,-293.436)">
            <g transform="matrix(1,0,0,1,-0.965869,-21.3714)">
                <path d="M653.428,637.75C651.092,639.79 648.402,642.355 646.496,645.269C644.484,648.345 643.347,651.804 644.218,655.455C645.475,660.728 650.358,663.768 655.612,664.282C660.834,664.794 666.352,662.793 668.896,658.235C672.154,652.397 671.939,643.857 667.128,638.89C660.477,632.025 648.617,632.46 645.006,642.313C644.808,642.853 645.086,643.452 645.625,643.649C646.165,643.847 646.764,643.57 646.962,643.03C650.005,634.728 660.028,634.555 665.632,640.34C669.828,644.671 669.918,652.128 667.077,657.22C664.93,661.066 660.222,662.64 655.815,662.209C651.441,661.781 647.291,659.361 646.244,654.972C645.511,651.896 646.544,649 648.239,646.41C650.04,643.657 652.592,641.246 654.798,639.319C655.231,638.94 655.276,638.282 654.898,637.849C654.519,637.416 653.861,637.371 653.428,637.75Z"/>
            </g>
            <g transform="matrix(1,0,0,1,-0.198414,-20.8266)">
                <path d="M656.377,666.152C656.377,677.169 656.68,688.185 656.741,699.203" style="fill:none;stroke:black;stroke-width:1.47px;"/>
            </g>
            <g transform="matrix(1,0,0,1,3.42361,-20.8266)">
                <path d="M652.755,672.943C651.721,680.479 650.745,683.941 650.031,692.477" style="fill:none;stroke:black;stroke-width:1.47px;"/>
            </g>
            <g transform="matrix(-1,0,0,1,1309.12,-20.8266)">
                <path d="M652.755,672.943C651.721,680.479 650.745,683.941 650.031,692.477" style="fill:none;stroke:black;stroke-width:1.47px;"/>
            </g>
            <g transform="matrix(1,0,0,1,10.7317,-1.04111)">
                <path d="M645.447,678.327C645.309,684.536 645.265,691.788 644.765,698.932C644.521,702.412 640.248,700.328 640,701.025" style="fill:none;stroke:black;stroke-width:1.47px;"/>
            </g>
            <g transform="matrix(-1,0,0,1,1301.54,-1.04111)">
                <path d="M644.757,678.327C644.734,684.746 645.265,691.788 644.765,698.932C644.521,702.412 649.814,700.328 649.566,701.025" style="fill:none;stroke:black;stroke-width:1.47px;"/>
            </g>
        </g>
        <g>
            <g transform="matrix(1.41799,0,0,1.41799,-225.449,-293.436)">
                <g transform="matrix(1,0,0,1,-58.9182,-21.3714)">
                    <path d="M653.428,637.75C651.092,639.79 648.402,642.355 646.496,645.269C644.484,648.345 643.347,651.804 644.218,655.455C645.475,660.728 650.358,663.768 655.612,664.282C660.834,664.794 666.352,662.793 668.896,658.235C672.154,652.397 671.939,643.857 667.128,638.89C660.477,632.025 648.617,632.46 645.006,642.313C644.808,642.853 645.086,643.452 645.625,643.649C646.165,643.847 646.764,643.57 646.962,643.03C650.005,634.728 660.028,634.555 665.632,640.34C669.828,644.671 669.918,652.128 667.077,657.22C664.93,661.066 660.222,662.64 655.815,662.209C651.441,661.781 647.291,659.361 646.244,654.972C645.511,651.896 646.544,649 648.239,646.41C650.04,643.657 652.592,641.246 654.798,639.319C655.231,638.94 655.276,638.282 654.898,637.849C654.519,637.416 653.861,637.371 653.428,637.75Z"/>
                </g>
                <g transform="matrix(1.36815,0,0,0.939653,-142.284,18.8971)">
                    <rect x="528.935" y="627.933" width="23.917" height="39.956" style="fill:rgb(235,235,235);fill-opacity:0;stroke:black;stroke-opacity:0;stroke-width:1.25px;"/>
                </g>
            </g>
            <g transform="matrix(1.41799,0,0,1.41799,-278.348,-297.577)">
                <g transform="matrix(1,0,0,1,-58.9182,-21.3714)">
                    <path d="M653.428,637.75C651.092,639.79 648.402,642.355 646.496,645.269C644.484,648.345 643.347,651.804 644.218,655.455C645.475,660.728 650.358,663.768 655.612,664.282C660.834,664.794 666.352,662.793 668.896,658.235C672.154,652.397 671.939,643.857 667.128,638.89C660.477,632.025 648.617,632.46 645.006,642.313C644.808,642.853 645.086,643.452 645.625,643.649C646.165,643.847 646.764,643.57 646.962,643.03C647.923,640.406 649.303,639.324 650.266,638.47C652.35,636.621 653.724,637.491 653.428,637.75Z"/>
                </g>
                <g transform="matrix(1.36815,0,0,0.939653,-142.284,18.8971)">
                    <rect x="528.935" y="627.933" width="23.917" height="39.956" style="fill:rgb(235,235,235);fill-opacity:0;stroke:black;stroke-opacity:0;stroke-width:1.25px;"/>
                </g>
            </g>
            <g transform="matrix(1.41799,0,0,1.41799,-225.449,-293.436)">
                <g transform="matrix(1,0,0,1,-58.1508,-20.8266)">
                    <path d="M656.377,666.152C656.377,677.169 656.68,688.185 656.741,699.203" style="fill:none;stroke:black;stroke-width:1.47px;"/>
                </g>
                <g transform="matrix(0.608921,0,0,0.939653,268.865,53.5215)">
                    <rect x="528.935" y="627.933" width="23.917" height="39.956" style="fill:rgb(235,235,235);fill-opacity:0;stroke:black;stroke-opacity:0;stroke-width:1.86px;"/>
                </g>
            </g>
            <g transform="matrix(1.41799,0,0,1.41799,-225.449,-293.436)">
                <g transform="matrix(1,0,0,1,-66.3898,-20.8591)">
                    <path d="M652.755,672.943C651.721,680.479 650.745,683.941 650.031,692.477" style="fill:none;stroke:black;stroke-width:1.47px;"/>
                </g>
                <g transform="matrix(0.68674,0,0,0.670242,213.55,227.79)">
                    <rect x="528.935" y="627.933" width="23.917" height="39.956" style="fill:rgb(235,235,235);fill-opacity:0;stroke:black;stroke-opacity:0;stroke-width:2.17px;"/>
                </g>
            </g>
            <g transform="matrix(1.41799,0,0,1.41799,-225.449,-293.436)">
                <g transform="matrix(-1,0,0,1,1262.2,-20.8591)">
                    <path d="M652.755,672.943C651.721,680.479 650.745,683.941 650.031,692.477" style="fill:none;stroke:black;stroke-width:1.47px;"/>
                </g>
                <g transform="matrix(0.68674,0,0,0.670242,240.712,227.79)">
                    <rect x="528.935" y="627.933" width="23.917" height="39.956" style="fill:rgb(235,235,235);fill-opacity:0;stroke:black;stroke-opacity:0;stroke-width:2.17px;"/>
                </g>
            </g>
            <g transform="matrix(1.41799,0,0,1.41799,-225.449,-293.436)">
                <g transform="matrix(1,0,0,1,-54.9966,-1.04111)">
                    <path d="M645.447,678.327C645.309,684.536 645.265,691.788 644.765,698.932C644.521,702.412 640.248,700.328 640,701.025" style="fill:none;stroke:black;stroke-width:1.47px;"/>
                </g>
                <g transform="matrix(0.608921,0,0,0.670242,259.296,254.378)">
                    <rect x="528.935" y="627.933" width="23.917" height="39.956" style="fill:rgb(235,235,235);fill-opacity:0;stroke:black;stroke-opacity:0;stroke-width:2.29px;"/>
                </g>
            </g>
            <g transform="matrix(1.41799,0,0,1.41799,-225.449,-293.436)">
                <g transform="matrix(0.705226,0,0,0.705226,158.992,206.939)">
                    <path d="M637.375,685.581C637.375,685.581 637.632,686.269 638.457,686.278C639.235,686.286 639.456,685.581 639.456,685.581C639.481,679.13 639.793,672.85 639.772,666.942C639.77,666.367 639.302,665.902 638.727,665.904C638.152,665.906 637.687,666.374 637.689,666.949C637.71,672.856 637.402,679.133 637.375,685.581Z"/>
                </g>
                <g transform="matrix(0.608921,0,0,0.413836,280.081,415.384)">
                    <rect x="528.935" y="627.933" width="23.917" height="39.956" style="fill:rgb(235,235,235);fill-opacity:0;stroke:black;stroke-opacity:0;stroke-width:2.82px;"/>
                </g>
            </g>
            <g>
                <g transform="matrix(0.863442,0,0,0.488385,171.702,380.071)">
                    <rect x="528.935" y="627.933" width="23.917" height="39.956" style="fill:rgb(235,235,235);fill-opacity:0;stroke:black;stroke-opacity:0;stroke-width:2.97px;"/>
                </g>
                <g transform="matrix(1,0,0,1,0,3)">
                    <path d="M639.456,685.581C639.456,685.581 639.28,684.697 638.375,684.685C637.471,684.673 637.375,685.581 637.375,685.581C637.36,689.093 637.429,692.656 637.68,696.236C637.722,696.844 637.626,697.272 637.359,697.549C637.078,697.842 636.66,697.957 636.215,698.024C634.921,698.219 633.391,697.919 632.573,697.876C631.832,697.836 631.361,698.08 631.177,698.271C630.893,698.568 630.742,698.953 630.929,699.479C631.122,700.021 631.718,700.304 632.26,700.112C632.355,700.078 632.442,700.032 632.519,699.976C632.886,700.009 633.581,700.071 634.172,700.118C635.151,700.196 636.243,700.202 637.163,699.952C637.926,699.744 638.582,699.366 639.049,698.778C639.536,698.166 639.844,697.309 639.758,696.09C639.511,692.559 639.442,689.046 639.456,685.581ZM632.91,698.836L632.913,698.847L632.91,698.836Z"/>
                </g>
            </g>
        </g>
        <g transform="matrix(1.41799,0,0,1.41799,-225.449,-293.436)">
            <g transform="matrix(1,0,0,1,78.4289,-21.3714)">
                <path d="M653.428,637.75C651.092,639.79 648.402,642.355 646.496,645.269C644.484,648.345 643.347,651.804 644.218,655.455C645.475,660.728 650.358,663.768 655.612,664.282C660.834,664.794 666.352,662.793 668.896,658.235C672.154,652.397 671.939,643.857 667.128,638.89C660.477,632.025 648.617,632.46 645.006,642.313C644.808,642.853 645.086,643.452 645.625,643.649C646.165,643.847 646.764,643.57 646.962,643.03C648.208,639.629 649.496,638.729 650.665,638.094C652.349,637.178 653.683,637.526 653.428,637.75Z"/>
            </g>
            <g transform="matrix(1,0,0,1,79.1963,-20.8266)">
                <path d="M656.377,666.152C656.377,677.169 656.68,688.185 656.741,699.203" style="fill:none;stroke:black;stroke-width:1.47px;"/>
            </g>
            <g transform="matrix(1,0,0,1,79.1963,-20.8266)">
                <path d="M652.755,672.943C646.677,677.957 642.544,683.199 640.198,690.845" style="fill:none;stroke:black;stroke-width:1.47px;"/>
            </g>
            <g transform="matrix(-1,0,0,1,1392.31,-20.8266)">
                <path d="M652.755,672.943C646.677,677.957 642.544,683.199 640.198,690.845" style="fill:none;stroke:black;stroke-width:1.47px;"/>
            </g>
            <g transform="matrix(1,0,0,1,79.3947,0)">
                <path d="M654.566,680.187C649.443,685.447 645.265,691.788 644.765,698.932C644.521,702.412 640.248,700.328 640,701.025" style="fill:none;stroke:black;stroke-width:1.47px;"/>
            </g>
            <g transform="matrix(-1,0,0,1,1392.12,0)">
                <path d="M654.566,680.187C649.443,685.447 645.265,691.788 644.765,698.932C644.521,702.412 649.814,700.328 649.566,701.025" style="fill:none;stroke:black;stroke-width:1.47px;"/>
            </g>
        </g>
    </g>
    <g transform="matrix(1.41799,0,0,1.41799,71.3485,-279.084)">
        <g transform="matrix(1,0,0,1,-0.965869,-21.3714)">
            <path d="M653.428,637.75C651.092,639.79 648.402,642.355 646.496,645.269C644.484,648.345 643.347,651.804 644.218,655.455C645.475,660.728 650.358,663.768 655.612,664.282C660.834,664.794 666.352,662.793 668.896,658.235C672.154,652.397 671.939,643.857 667.128,638.89C660.477,632.025 648.617,632.46 645.006,642.313C644.808,642.853 645.086,643.452 645.625,643.649C646.165,643.847 646.764,643.57 646.962,643.03C650.005,634.728 660.028,634.555 665.632,640.34C669.828,644.671 669.918,652.128 667.077,657.22C664.93,661.066 660.222,662.64 655.815,662.209C651.441,661.781 647.291,659.361 646.244,654.972C645.511,651.896 646.544,649 648.239,646.41C650.04,643.657 652.592,641.246 654.798,639.319C655.231,638.94 655.276,638.282 654.898,637.849C654.519,637.416 653.861,637.371 653.428,637.75Z"/>
        </g>
        <g transform="matrix(1,0,0,1,-0.198414,-20.8266)">
            <path d="M656.377,666.152C656.377,677.169 656.68,688.185 656.741,699.203" style="fill:none;stroke:black;stroke-width:1.47px;"/>
        </g>
        <g transform="matrix(1,0,0,1,3.42361,-20.8266)">
            <path d="M652.755,672.943C651.721,680.479 650.745,683.941 650.031,692.477" style="fill:none;stroke:black;stroke-width:1.47px;"/>
        </g>
        <g transform="matrix(-1,0,0,1,1309.12,-20.8266)">
            <path d="M652.755,672.943C651.721,680.479 650.745,683.941 650.031,692.477" style="fill:none;stroke:black;stroke-width:1.47px;"/>
        </g>
        <g transform="matrix(1,0,0,1,10.7317,-1.04111)">
            <path d="M645.447,678.327C645.309,684.536 645.265,691.788 644.765,698.932C644.521,702.412 640.248,700.328 640,701.025" style="fill:none;stroke:black;stroke-width:1.47px;"/>
        </g>
        <g transform="matrix(-1,0,0,1,1301.54,-1.04111)">
            <path d="M644.757,678.327C644.734,684.746 645.265,691.788 644.765,698.932C644.521,702.412 649.814,700.328 649.566,701.025" style="fill:none;stroke:black;stroke-width:1.47px;"/>
        </g>
    </g>
    <g>
        <g transform="matrix(1.40466,0,0,1.23792,-526.474,-167.774)">
            <path d="M1294.47,489.076C1277.59,496.414 1256.83,501.017 1243.95,515.082C1235.97,523.807 1233.68,540.401 1226.15,546.808C1218.82,553.04 1197.04,539.244 1185.68,548.291C1177.66,554.672 1175.74,565.953 1170.37,574.311C1161.38,588.285 1150.28,598.676 1145.29,615.131C1136.52,644.015 1145.76,694.544 1145.38,726.95" style="fill:none;stroke:black;stroke-width:1.57px;"/>
        </g>
        <g transform="matrix(1.40466,0,0,1.23792,-526.474,-167.774)">
            <path d="M1259.1,549.207C1251.71,560.558 1240.76,566.577 1231.75,576.265C1225.7,582.775 1222.42,591.452 1215.98,597.63" style="fill:none;stroke:black;stroke-width:1.57px;"/>
        </g>
        <g transform="matrix(1.40466,0,0,1.23792,-526.474,-167.774)">
            <path d="M1261.75,596.074C1259.26,614.307 1268.4,634.808 1261.98,651.976" style="fill:none;stroke:black;stroke-width:1.57px;"/>
        </g>
        <g transform="matrix(1.40466,0,0,1.23792,-526.474,-167.774)">
            <path d="M1186.58,591.653C1178.54,596.944 1168.29,594.855 1159.99,599.259" style="fill:none;stroke:black;stroke-width:1.57px;"/>
        </g>
        <g transform="matrix(1.50243,0,0,1.47104,-669.257,-354.148)">
            <path d="M1199.83,637.372C1214.48,637.372 1226.38,660.017 1226.38,687.908L1226.38,730.199L1174.45,730.199C1174.45,730.199 1173.29,705.592 1173.29,687.908C1173.29,660.017 1185.18,637.372 1199.83,637.372Z" style="stroke:black;stroke-width:1.4px;"/>
        </g>
    </g>
    <g transform="matrix(0.375,0,0,0.388889,402.142,208.199)">
        <rect x="739.75" y="349.926" width="42.445" height="47.751" style="fill:white;"/>
    </g>
    <rect x="552.211" y="422.578" width="127.336" height="86.589" style="fill:white;fill-opacity:0;"/>
    <clipPath id="_clip1">
        <rect x="552.211" y="422.578" width="127.336" height="86.589"/>
    </clipPath>
    <g clip-path="url(#_clip1)">
        <g transform="matrix(1,0,0,1,-320.625,-51.3873)">
            <path d="M861.214,499.546C872.49,489.396 882.727,478.155 894.269,468.28" style="fill:none;stroke:black;stroke-width:2.08px;"/>
        </g>
        <g transform="matrix(1,0,0,1,-309.003,-45.702)">
            <path d="M861.214,499.546C872.49,489.396 882.727,478.155 894.269,468.28" style="fill:none;stroke:black;stroke-width:2.08px;"/>
        </g>
        <g transform="matrix(1,0,0,1,-304.098,-35.7544)">
            <path d="M856.309,505.631C867.585,495.481 893.159,468.208 904.7,458.333" style="fill:none;stroke:black;stroke-width:2.08px;"/>
        </g>
        <g transform="matrix(1,0,0,1,-295.126,-28.8995)">
            <path d="M847.338,514.417C858.613,504.267 899.464,461.353 911.006,451.478" style="fill:none;stroke:black;stroke-width:2.08px;"/>
        </g>
        <g transform="matrix(1,0,0,1,-283.504,-23.2141)">
            <path d="M835.715,523.762C846.991,513.612 904.159,455.667 915.701,445.792" style="fill:none;stroke:black;stroke-width:2.08px;"/>
        </g>
        <g transform="matrix(1,0,0,1,-278.599,-13.2665)">
            <path d="M838.344,522.434C849.62,512.283 912.734,445.72 924.275,435.845" style="fill:none;stroke:black;stroke-width:2.08px;"/>
        </g>
        <g transform="matrix(1,0,0,1,-262.072,-12.0969)">
            <path d="M838.479,521.264C849.755,511.114 909.686,444.55 921.227,434.675" style="fill:none;stroke:black;stroke-width:2.08px;"/>
        </g>
        <g transform="matrix(1,0,0,1,-250.45,-6.41157)">
            <path d="M842.654,515.579C853.93,505.428 910.544,438.865 922.086,428.99" style="fill:none;stroke:black;stroke-width:2.08px;"/>
        </g>
        <g transform="matrix(1,0,0,1,-245.545,3.53599)">
            <path d="M856.309,505.631C867.585,495.481 912.578,438.865 924.119,428.99" style="fill:none;stroke:black;stroke-width:2.08px;"/>
        </g>
        <g transform="matrix(1,0,0,1,-232.066,8.05172)">
            <path d="M857.448,501.115C868.723,490.965 899.099,449.982 910.64,440.107" style="fill:none;stroke:black;stroke-width:2.08px;"/>
        </g>
        <g transform="matrix(1,0,0,1,-220.444,13.7371)">
            <path d="M857.158,495.43C868.434,485.28 888.45,457.701 899.991,447.826" style="fill:none;stroke:black;stroke-width:2.08px;"/>
        </g>
        <g transform="matrix(1,0,0,1,-216.387,22.0507)">
            <path d="M857.158,495.43C868.434,485.28 888.45,457.701 899.991,447.826" style="fill:none;stroke:black;stroke-width:2.08px;"/>
        </g>
        <g transform="matrix(1,0,0,1,-215.539,23.6846)">
            <path d="M856.309,505.631C867.585,495.481 893.159,468.208 904.7,458.333" style="fill:none;stroke:black;stroke-width:2.08px;"/>
        </g>
    </g>
    <rect x="552.211" y="422.578" width="127.336" height="86.589" style="fill:none;stroke:black;stroke-width:2.08px;"/>
    <g>
        <g transform="matrix(1.41799,0,0,1.41799,-109.749,-601.653)">
            <g transform="matrix(1,0,0,1,78.4289,-21.3714)">
                <path d="M653.428,637.75C651.092,639.79 648.402,642.355 646.496,645.269C644.484,648.345 643.347,651.804 644.218,655.455C645.475,660.728 650.358,663.768 655.612,664.282C660.834,664.794 666.352,662.793 668.896,658.235C672.154,652.397 671.939,643.857 667.128,638.89C660.477,632.025 648.617,632.46 645.006,642.313C644.808,642.853 645.086,643.452 645.625,643.649C646.165,643.847 646.764,643.57 646.962,643.03C648.208,639.629 649.496,638.729 650.665,638.094C652.349,637.178 653.683,637.526 653.428,637.75Z"/>
            </g>
            <g transform="matrix(1,0,0,1,79.1963,-20.8266)">
                <path d="M656.377,666.152C656.377,677.169 656.68,688.185 656.741,699.203" style="fill:none;stroke:black;stroke-width:1.47px;"/>
            </g>
            <g transform="matrix(1,0,0,1,79.1963,-20.8266)">
                <path d="M652.755,672.943C646.677,677.957 642.544,683.199 640.198,690.845" style="fill:none;stroke:black;stroke-width:1.47px;"/>
            </g>
            <g transform="matrix(-1,0,0,1,1392.31,-20.8266)">
                <path d="M652.755,672.943C646.677,677.957 642.544,683.199 640.198,690.845" style="fill:none;stroke:black;stroke-width:1.47px;"/>
            </g>
            <g transform="matrix(1,0,0,1,79.3947,0)">
                <path d="M654.566,680.187C649.443,685.447 645.265,691.788 644.765,698.932C644.521,702.412 640.248,700.328 640,701.025" style="fill:none;stroke:black;stroke-width:1.47px;"/>
            </g>
            <g transform="matrix(-1,0,0,1,1392.12,0)">
                <path d="M654.566,680.187C649.443,685.447 645.265,691.788 644.765,698.932C644.521,702.412 649.814,700.328 649.566,701.025" style="fill:none;stroke:black;stroke-width:1.47px;"/>
            </g>
        </g>
        <g transform="matrix(-1.41799,0,0,1.41799,1861.13,-601.653)">
            <g transform="matrix(1,0,0,1,78.4349,-21.3714)">
                <path d="M653.428,637.75C651.092,639.79 648.402,642.355 646.496,645.269C644.484,648.345 643.347,651.804 644.218,655.455C645.475,660.728 650.358,663.768 655.612,664.282C660.834,664.794 666.352,662.793 668.896,658.235C672.154,652.397 671.939,643.857 667.128,638.89C660.477,632.025 648.617,632.46 645.006,642.313C644.808,642.853 645.086,643.452 645.625,643.649C646.165,643.847 646.764,643.57 646.962,643.03C650.005,634.728 660.028,634.555 665.632,640.34C669.828,644.671 669.918,652.128 667.077,657.22C664.93,661.066 660.222,662.64 655.815,662.209C651.441,661.781 647.291,659.361 646.244,654.972C645.511,651.896 646.544,649 648.239,646.41C650.04,643.657 652.592,641.246 654.798,639.319C655.231,638.94 655.276,638.282 654.898,637.849C654.519,637.416 653.861,637.371 653.428,637.75Z"/>
            </g>
            <g transform="matrix(1,0,0,1,79.1963,-20.8266)">
                <path d="M656.377,666.152C656.377,677.169 656.68,688.185 656.741,699.203" style="fill:none;stroke:black;stroke-width:1.47px;"/>
            </g>
            <g transform="matrix(1,0,0,1,79.1963,-20.8266)">
                <path d="M652.755,672.943C646.677,677.957 642.544,683.199 640.198,690.845" style="fill:none;stroke:black;stroke-width:1.47px;"/>
            </g>
            <g transform="matrix(-1,0,0,1,1392.31,-20.8266)">
                <path d="M652.755,672.943C646.677,677.957 642.544,683.199 640.198,690.845" style="fill:none;stroke:black;stroke-width:1.47px;"/>
            </g>
            <g transform="matrix(1,0,0,1,79.3947,0)">
                <path d="M654.566,680.187C649.443,685.447 645.265,691.788 644.765,698.932C644.521,702.412 640.248,700.328 640,701.025" style="fill:none;stroke:black;stroke-width:1.47px;"/>
            </g>
            <g transform="matrix(-1,0,0,1,1392.12,0)">
                <path d="M654.566,680.187C649.443,685.447 645.265,691.788 644.765,698.932C644.521,702.412 649.814,700.328 649.566,701.025" style="fill:none;stroke:black;stroke-width:1.47px;"/>
            </g>
        </g>
        <g transform="matrix(0.826667,-1.3529e-17,1.3529e-17,0.826667,542.879,-186.592)">
            <g transform="matrix(1,0,0,1,-3.04597,-16.0409)">
                <path d="M503.686,666.122L511.03,686.67L503.686,707.217L496.342,686.67L503.686,666.122Z" style="fill:rgb(217,139,45);stroke:black;stroke-opacity:0;stroke-width:2.52px;"/>
            </g>
            <path d="M507.984,670.629L500.64,691.176L500.64,650.081L507.984,670.629Z" style="fill:rgb(255,159,0);stroke:black;stroke-opacity:0;stroke-width:2.52px;"/>
            <g transform="matrix(1,0,0,0.648133,0,230.976)">
                <path d="M512.23,662.333L489.049,662.333C489.049,662.333 492.234,657.317 494.845,656.43C497.742,655.446 503.537,655.446 506.435,656.43C509.046,657.317 512.23,662.333 512.23,662.333Z" style="fill:rgb(105,38,0);stroke:black;stroke-opacity:0;stroke-width:2.99px;"/>
            </g>
            <g transform="matrix(1,0,0,1,2.14887,10.4698)">
                <path d="M500.64,632.741C500.212,631.374 496.77,631.374 496.342,632.741C495.626,635.031 496.342,646.481 496.342,646.481L500.64,646.481C500.64,646.481 501.356,635.031 500.64,632.741Z" style="fill:rgb(105,38,0);stroke:black;stroke-opacity:0;stroke-width:2.52px;"/>
            </g>
        </g>
        <g transform="matrix(0.826667,-1.3529e-17,1.3529e-17,0.826667,380.78,-186.592)">
            <g transform="matrix(1,0,0,1,-3.04597,-16.0409)">
                <path d="M503.686,666.122L511.03,686.67L503.686,707.217L496.342,686.67L503.686,666.122Z" style="fill:rgb(98,93,93);stroke:black;stroke-opacity:0;stroke-width:2.52px;"/>
            </g>
            <path d="M507.984,670.629L500.64,691.176L500.64,650.081L507.984,670.629Z" style="fill:rgb(113,113,113);stroke:black;stroke-opacity:0;stroke-width:2.52px;"/>
            <g transform="matrix(1,0,0,0.648133,0,230.976)">
                <path d="M512.23,662.333L489.049,662.333C489.049,662.333 492.234,657.317 494.845,656.43C497.742,655.446 503.537,655.446 506.435,656.43C509.046,657.317 512.23,662.333 512.23,662.333Z" style="fill:rgb(130,48,0);stroke:black;stroke-opacity:0;stroke-width:2.99px;"/>
            </g>
            <g transform="matrix(1,0,0,1,2.14887,10.4698)">
                <path d="M500.64,632.741C500.212,631.374 496.77,631.374 496.342,632.741C495.626,635.031 496.342,646.481 496.342,646.481L500.64,646.481C500.64,646.481 501.356,635.031 500.64,632.741Z" style="fill:rgb(130,48,0);stroke:black;stroke-opacity:0;stroke-width:2.52px;"/>
            </g>
        </g>
    </g>
    <g>
        <g transform="matrix(1.24089,0,0,1.1623,-25.6186,-165.191)">
            <rect x="267.075" y="534.966" width="36.388" height="40.277" style="fill:white;"/>
        </g>
        <g transform="matrix(0.471915,0,0,0.471915,18.539,170.228)">
            <g transform="matrix(1,0,0,1,-0.965869,-21.3714)">
                <path d="M653.428,637.75C651.092,639.79 648.402,642.355 646.496,645.269C644.484,648.345 643.347,651.804 644.218,655.455C645.475,660.728 650.358,663.768 655.612,664.282C660.834,664.794 666.352,662.793 668.896,658.235C672.154,652.397 671.939,643.857 667.128,638.89C660.477,632.025 648.617,632.46 645.006,642.313C644.808,642.853 645.086,643.452 645.625,643.649C646.165,643.847 646.764,643.57 646.962,643.03C650.005,634.728 660.028,634.555 665.632,640.34C669.828,644.671 669.918,652.128 667.077,657.22C664.93,661.066 660.222,662.64 655.815,662.209C651.441,661.781 647.291,659.361 646.244,654.972C645.511,651.896 646.544,649 648.239,646.41C650.04,643.657 652.592,641.246 654.798,639.319C655.231,638.94 655.276,638.282 654.898,637.849C654.519,637.416 653.861,637.371 653.428,637.75Z"/>
            </g>
            <g transform="matrix(1,0,0,1,-0.198414,-20.8266)">
                <path d="M656.377,666.152C656.377,677.169 656.68,688.185 656.741,699.203" style="fill:none;stroke:black;stroke-width:4.41px;"/>
            </g>
            <g transform="matrix(1,0,0,1,3.42361,-20.8266)">
                <path d="M652.755,672.943C651.721,680.479 650.745,683.941 650.031,692.477" style="fill:none;stroke:black;stroke-width:4.41px;"/>
            </g>
            <g transform="matrix(-1,0,0,1,1309.12,-20.8266)">
                <path d="M652.755,672.943C651.721,680.479 650.745,683.941 650.031,692.477" style="fill:none;stroke:black;stroke-width:4.41px;"/>
            </g>
            <g transform="matrix(1,0,0,1,10.7317,-1.04111)">
                <path d="M645.447,678.327C645.309,684.536 645.265,691.788 644.765,698.932C644.521,702.412 640.248,700.328 640,701.025" style="fill:none;stroke:black;stroke-width:4.41px;"/>
            </g>
            <g transform="matrix(-1,0,0,1,1301.54,-1.04111)">
                <path d="M644.757,678.327C644.734,684.746 645.265,691.788 644.765,698.932C644.521,702.412 649.814,700.328 649.566,701.025" style="fill:none;stroke:black;stroke-width:4.41px;"/>
            </g>
        </g>
        <g transform="matrix(0.738756,0,0,0.738756,144.262,112.434)">
            <rect x="218.651" y="465.873" width="61.122" height="63.368" style="fill:white;fill-opacity:0;stroke:black;stroke-width:2.82px;"/>
        </g>
    </g>
    <g>
        <g transform="matrix(1.24089,0,0,1.1623,36.4084,-165.191)">
            <rect x="267.075" y="534.966" width="36.388" height="40.277" style="fill:white;"/>
        </g>
        <g transform="matrix(0.471915,0,0,0.471915,80.566,170.228)">
            <g transform="matrix(1,0,0,1,-0.965869,-21.3714)">
                <path d="M653.428,637.75C651.092,639.79 648.402,642.355 646.496,645.269C644.484,648.345 643.347,651.804 644.218,655.455C645.475,660.728 650.358,663.768 655.612,664.282C660.834,664.794 666.352,662.793 668.896,658.235C672.154,652.397 671.939,643.857 667.128,638.89C660.477,632.025 648.617,632.46 645.006,642.313C644.808,642.853 645.086,643.452 645.625,643.649C646.165,643.847 646.764,643.57 646.962,643.03C648.077,639.987 649.631,639.074 650.713,638.322C652.585,637.02 653.702,637.51 653.428,637.75Z"/>
            </g>
            <g transform="matrix(1,0,0,1,-0.198414,-20.8266)">
                <path d="M656.377,666.152C656.377,677.169 656.68,688.185 656.741,699.203" style="fill:none;stroke:black;stroke-width:4.41px;"/>
            </g>
            <g transform="matrix(1,0,0,1,3.42361,-20.8266)">
                <path d="M652.755,672.943C651.721,680.479 650.745,683.941 650.031,692.477" style="fill:none;stroke:black;stroke-width:4.41px;"/>
            </g>
            <g transform="matrix(-1,0,0,1,1309.12,-20.8266)">
                <path d="M652.755,672.943C651.721,680.479 650.745,683.941 650.031,692.477" style="fill:none;stroke:black;stroke-width:4.41px;"/>
            </g>
            <g transform="matrix(1,0,0,1,10.7317,-1.04111)">
                <path d="M645.447,678.327C645.309,684.536 645.265,691.788 644.765,698.932C644.521,702.412 640.248,700.328 640,701.025" style="fill:none;stroke:black;stroke-width:4.41px;"/>
            </g>
            <g transform="matrix(-1,0,0,1,1301.54,-1.04111)">
                <path d="M644.757,678.327C644.734,684.746 645.265,691.788 644.765,698.932C644.521,702.412 649.814,700.328 649.566,701.025" style="fill:none;stroke:black;stroke-width:4.41px;"/>
            </g>
        </g>
        <g transform="matrix(0.738756,0,0,0.738756,206.289,112.434)">
            <rect x="218.651" y="465.873" width="61.122" height="63.368" style="fill:white;fill-opacity:0;stroke:black;stroke-width:2.82px;"/>
        </g>
    </g>
</svg>
